<svg width="473" height="301" viewBox="0 0 473 301" fill="none" xmlns="http://www.w3.org/2000/svg">
<g clip-path="url(#clip0_99_4)">
<path d="M450.08 269.15C450.48 267.66 450.47 265.44 450.44 263.96L449.93 260.15C449.93 260.15 449.9 260.11 449.88 260.1C449.84 260.1 449.8 260.1 449.76 260.1C449.6 260.93 449.41 262.3 449.29 262.55C448.99 263.17 448.41 264.1 447.95 264.61C447.56 265.05 446.63 267.13 446.12 267.42C445.53 267.74 446.54 264.27 445.51 265.88C445.16 266.43 445.26 263.76 445.01 263.17C445.01 263.15 444.32 265.21 444.31 265.2C444.31 265.22 443.37 266.73 443.36 266.75C442.94 267.5 442.51 266.62 441.64 266.58C441.03 266.55 440.46 266.01 440.35 265.35C440.28 264.94 440.07 265.57 439.99 265.85C439.87 265.68 439.02 264.74 438.94 264.61V265.87L419.51 260.1C419.47 260.09 419.43 260.06 419.4 260.03C419.06 260.02 418.69 259.92 418.36 259.77C417.17 259.23 416.75 256.79 417.03 259.3C416.94 259.37 416.77 259.28 416.65 259.24L381.27 248.72C381.27 248.72 381.2 248.72 381.17 248.71L35.64 256C35.49 256 35.36 255.9 35.32 255.76L33.97 250.7C33.97 250.7 33.47 252.44 33.44 255.71C33.44 255.89 33.3 256.04 33.12 256.04L30.88 256.06C30.8 256.03 30.74 256.01 30.67 255.98C30.06 255.45 26.56 252.27 25.46 248.67C25.35 248.32 24.84 248.38 24.83 248.74C24.73 251.11 24.87 254.7 24.91 255.79C24.91 255.97 24.77 256.12 24.59 256.13L2.17002 256.82C1.80002 256.83 1.73002 257.36 2.09002 257.46L103.96 286.45C103.96 286.45 104.03 286.45 104.06 286.46L472.21 275.76L450.09 269.18L450.08 269.15Z" fill="#CCCCCC"/>
<path d="M472.61 289.48L103.85 300.03L104.01 286.43L472.2 275.73L472.61 289.48Z" fill="#CCCCCC"/>
<path d="M103.85 300.03L0.290059 270.53L0.0600586 256.85L104.01 286.43L103.85 300.03Z" fill="#808080"/>
<path d="M194.4 275.82L70.74 265.83L92.75 271.21L40.01 268.27L0 257.02C0 257.02 24.7 256.19 25.15 256.19C25.6 256.19 24.77 248.86 24.77 248.86C24.73 248.47 25.23 248.39 25.38 248.91C26 251.89 30.37 256.07 30.37 256.07L33.41 255.98C33.41 255.98 33.94 248.95 33.94 250.76C33.94 252.57 35.38 255.92 35.38 255.92L263.57 248.82L364.38 267.86C366.5 268.23 366.3 271.33 364.15 271.42L197.46 275.89C196.43 275.92 195.4 275.89 194.38 275.81L194.4 275.82Z" fill="#808080"/>
<path d="M374.66 126.94L288.65 35.25L202.28 128.61V276.63L369.75 272.39C372.48 272.32 374.65 270.09 374.65 267.37V126.94H374.66Z" fill="white" stroke="black" stroke-miterlimit="10"/>
<path d="M202.28 124.75L141.44 121.31V261.16L197.93 276.61C198.45 276.85 201.29 276.98 202.28 276.63V124.75Z" fill="#C9CACB" stroke="black" stroke-width="0.75" stroke-linecap="round" stroke-linejoin="round"/>
<path d="M288.47 24.77C288.47 24.77 397.44 137.68 399.33 140.18C401.22 142.68 394.62 148.47 391.53 145.38C388.44 142.29 288.61 34.66 288.61 34.66L179.62 153.08C176.98 156.75 171.21 149.71 173.08 147.83L288.47 24.77Z" fill="#A3A5A8" stroke="black" stroke-miterlimit="10"/>
<path d="M262.16 274.84C261.89 276.59 249.21 276.76 249.21 275.58L250.82 167.5L328.9 165.89V272.86C328.9 274.47 316.06 274.42 316.06 273.75V179.21L262.75 180.1L262.18 274.82L262.16 274.84Z" fill="#999999" stroke="black" stroke-width="0.75" stroke-linecap="round" stroke-linejoin="round"/>
<path d="M109.25 121.61C107.61 124.44 105.58 131.47 110.93 136.59C159.37 150.58 159.27 150.65 165.96 152.41C168.86 153.17 169.55 152.72 171.87 150.38L288.16 26.94L405.2 146.6C405.2 146.6 412.7 140.33 404.67 131.16C404.67 131.16 298.96 23.31 294.6 18.96C290.85 15.21 282.45 13.84 282.45 13.84C282.45 13.84 239.11 2.07003 233.53 0.690029C227.19 -0.379972 223.57 3.19003 222.37 4.44003L109.25 121.61Z" fill="#666666" stroke="black" stroke-linecap="round" stroke-linejoin="round"/>
<path d="M262.74 180.12L316.05 179.23V273.51C316.05 273.65 316.16 273.77 316.3 273.78L319.94 274.21L321.69 274.05L321.46 176.12L262.72 177.05V180.12" fill="#808080"/>
<path d="M262.74 180.12L316.05 179.23V273.51C316.05 273.65 316.16 273.77 316.3 273.78L319.94 274.21L321.69 274.05L321.46 176.12L262.72 177.05V180.12" stroke="black" stroke-width="0.5" stroke-linecap="round" stroke-linejoin="round"/>
<path d="M316.05 273.77L262.17 275.11L262.74 180.12L316.05 179.23V273.77Z" fill="#F8F8F9" stroke="black" stroke-width="0.75" stroke-linecap="round" stroke-linejoin="round"/>
<path d="M286.66 189.11H271.68V225.17H286.66V189.11Z" fill="#CCCCCC" stroke="black" stroke-width="0.5" stroke-linecap="round" stroke-linejoin="round"/>
<path d="M262.74 187.71H263.7C264.5 187.71 265.15 188.36 265.15 189.16V193.33C265.15 194.13 264.5 194.78 263.7 194.78H262.74V187.71Z" fill="#CCCCCC" stroke="black" stroke-width="0.5" stroke-miterlimit="10"/>
<path d="M222.37 4.30005L271.56 17.35C275.13 18.3 276.37 22.74 273.8 25.4L164.89 137.9L109.55 121.47L222.37 4.30005Z" fill="#4D4D4D" stroke="black" stroke-width="0.5" stroke-linecap="round" stroke-linejoin="round"/>
<path d="M301.76 237.98C302.898 237.98 303.82 236.843 303.82 235.44C303.82 234.037 302.898 232.9 301.76 232.9C300.622 232.9 299.7 234.037 299.7 235.44C299.7 236.843 300.622 237.98 301.76 237.98Z" fill="#333333" stroke="black" stroke-width="0.5" stroke-miterlimit="10"/>
<path d="M305.32 239.9C307.805 239.9 309.82 237.885 309.82 235.4C309.82 232.915 307.805 230.9 305.32 230.9C302.835 230.9 300.82 232.915 300.82 235.4C300.82 237.885 302.835 239.9 305.32 239.9Z" fill="#666666" stroke="black" stroke-width="0.5" stroke-miterlimit="10"/>
<path d="M305.92 189.11H292.22V225.09H305.92V189.11Z" fill="#CCCCCC" stroke="black" stroke-width="0.5" stroke-linecap="round" stroke-linejoin="round"/>
<path d="M262.34 260.34H263.62C264.24 260.34 264.74 260.84 264.74 261.46V266.28C264.74 266.9 264.24 267.4 263.62 267.4H262.34V260.33V260.34Z" fill="#CCCCCC" stroke="black" stroke-width="0.5" stroke-miterlimit="10"/>
<path d="M266.63 121.94V102.26C266.63 74.92 311.46 71.64 311.46 103.35V120.85L266.63 121.94Z" fill="#E6E6E6" stroke="black" stroke-miterlimit="10"/>
<path d="M286.86 82.02C296.29 82.63 305.15 89.5 305.15 103.7" stroke="black" stroke-linecap="round" stroke-linejoin="round"/>
<path d="M304.9 108.27V119.75" stroke="black" stroke-linecap="round" stroke-linejoin="round"/>
<path d="M173.6 15.22L199.43 14.76L207.46 16.98L181.47 17.59L173.6 15.22Z" fill="#808080" stroke="black" stroke-linecap="round" stroke-linejoin="round"/>
<path d="M297.87 203.31L302.14 191.24" stroke="black" stroke-width="0.5" stroke-linecap="round" stroke-linejoin="round"/>
<path d="M302.64 195.99L297.3 211.11" stroke="black" stroke-width="0.5" stroke-linecap="round" stroke-linejoin="round"/>
<path d="M274.45 219.07L280.03 203.31" stroke="black" stroke-width="0.5" stroke-linecap="round" stroke-linejoin="round"/>
<path d="M277.89 215.37L282.16 203.31" stroke="black" stroke-width="0.5" stroke-linecap="round" stroke-linejoin="round"/>
<path d="M180.74 73.7L172.71 71.25L173.55 15.23L181.43 17.6L181.08 49.16L181.47 17.6L207.46 16.98L206.85 46.41L180.78 73.7" fill="#919396"/>
<path d="M180.74 73.7L172.71 71.25L173.55 15.23L181.43 17.6L181.08 49.16L181.47 17.6L207.46 16.98L206.85 46.41L180.78 73.7" stroke="black" stroke-linecap="round" stroke-linejoin="round"/>
<path d="M181.08 49.16L181.47 17.6L207.46 16.98L206.85 46.41L180.78 73.7" fill="#B1B3B6"/>
<path d="M181.08 49.16L181.47 17.6L207.46 16.98L206.85 46.41L180.78 73.7" stroke="black" stroke-linecap="round" stroke-linejoin="round"/>
<path d="M180.96 239.78L161.83 235.34C159.7 234.85 158.2 232.94 158.23 230.75L159.14 161.62C159.16 160.02 160.18 158.49 163.18 158.49H168.18L182.71 162.73C185.29 163.17 187.18 165.41 187.18 168.03V235.04C187.18 238.29 184.09 240.64 180.95 239.78H180.96Z" fill="#666666" stroke="black" stroke-width="0.5" stroke-miterlimit="10"/>
<path d="M178.19 225.5L167.19 222.5L167.66 173.34L178.19 176.5V225.5Z" fill="white"/>
<path d="M178.19 227.5L161.96 223.19L162.19 171.5L178.19 176.5V227.5Z" stroke="black" stroke-width="0.5" stroke-miterlimit="10"/>
<path d="M86.1 257.82V248.3L82.48 247.07L82.7 257.82H86.1Z" fill="#666666" stroke="black" stroke-width="0.5" stroke-miterlimit="10"/>
<path d="M111.69 224.49C111.69 224.49 109.99 226.47 92.91 226.84V235.27L111.69 234.35" fill="#666666"/>
<path d="M111.69 224.49C111.69 224.49 109.99 226.47 92.91 226.84V235.27L111.69 234.35" stroke="black" stroke-width="0.5" stroke-miterlimit="10"/>
<path d="M111.4 256.32C111.55 256.32 111.82 198.38 111.82 198.23C111.93 194.22 122.47 194.1 122.02 199.95C122.06 199.95 122.44 256.32 122.4 256.32H111.39H111.4Z" fill="#666666" stroke="black" stroke-width="0.5" stroke-miterlimit="10"/>
<path d="M141.86 225.18C141.86 225.18 122.22 226.13 122.22 224.49C122.22 222.85 122.41 233.78 122.41 233.78L141.86 234.35" fill="#666666"/>
<path d="M141.86 225.18C141.86 225.18 122.22 226.13 122.22 224.49C122.22 222.85 122.41 233.78 122.41 233.78L141.86 234.35" stroke="black" stroke-width="0.5" stroke-miterlimit="10"/>
<path d="M87.4 199.96C87.84 194.11 77.31 194.23 77.2 198.24C77.2 198.28 77.18 201.38 77.16 206.13C77.39 206.1 77.62 206.1 77.85 206.18C77.87 206.18 77.89 206.19 77.91 206.2C78.06 206.17 78.22 206.15 78.39 206.15C78.54 206.15 78.68 206.17 78.81 206.19C78.82 206.19 78.84 206.19 78.85 206.19H79.08C79.23 206.19 79.37 206.22 79.51 206.25C79.66 206.22 79.82 206.19 80 206.19C80.04 206.19 80.07 206.19 80.1 206.19C80.13 206.19 80.16 206.19 80.19 206.19C81.14 206.19 81.73 206.73 81.98 207.41C82.1 207.49 82.18 207.61 82.18 207.8C82.18 207.99 82.18 208.18 82.18 208.37C82.23 208.54 82.26 208.71 82.26 208.88C82.26 209.27 82.24 209.66 82.22 210.05C82.25 210.19 82.27 210.33 82.27 210.47C82.27 210.59 82.27 210.71 82.27 210.83C82.27 210.85 82.26 210.87 82.26 210.89C82.29 211.02 82.31 211.16 82.31 211.31C82.31 213.94 82.27 216.57 82.23 219.19C82.37 225.09 82.59 231 82.46 236.9C82.86 237.1 83.26 237.3 83.67 237.49C84.26 237.77 84.88 238 85.5 238.22C85.56 236.62 85.64 235.03 85.64 233.43C85.64 231.66 85.64 229.9 85.66 228.13C85.64 227.69 85.62 227.26 85.56 226.82C85.53 226.58 85.58 226.35 85.67 226.14C85.69 221.27 85.72 216.4 85.72 211.54C85.72 211.52 85.72 211.5 85.72 211.47C85.72 211.47 85.72 211.47 85.72 211.46C85.72 211.42 85.71 211.38 85.7 211.34C85.7 211.33 85.7 211.31 85.7 211.3C85.7 211.29 85.7 211.28 85.7 211.27C85.7 211.25 85.7 211.23 85.7 211.21C85.7 211.04 85.72 210.87 85.77 210.69C85.77 210.69 85.77 210.69 85.77 210.68C85.78 210.65 85.96 210.23 85.97 210.2C85.97 210.2 85.97 210.19 85.97 210.18C86.16 209.86 86.39 209.64 86.71 209.44C86.79 209.39 86.86 209.37 86.96 209.33C87.18 209.24 87.12 209.25 87.21 209.23C87.21 209.23 87.34 209.21 87.47 209.2C87.43 203.69 87.39 199.97 87.38 199.97L87.4 199.96Z" fill="#666666" stroke="black" stroke-width="0.5" stroke-miterlimit="10"/>
<path d="M54.53 228.4L66.13 234.2L82.66 238.48L87.87 240.05L87.21 248.53L84.8 247.87L77.81 245.59L62.53 241.55L59.71 240.78L53.89 238.01L54.53 228.4Z" fill="#808080"/>
<path d="M60.82 241.13V262.86H55.89C55.87 254.75 55.85 246.63 55.83 238.52" fill="#666666"/>
<path d="M60.82 241.13V262.86H55.89C55.87 254.75 55.85 246.63 55.83 238.52" stroke="black" stroke-width="0.5" stroke-miterlimit="10"/>
<path d="M56.06 230.87L55.83 228.4" stroke="black" stroke-width="0.5" stroke-linejoin="round"/>
<path d="M93.28 272.07V211.53C93.28 208.91 90.16 209.55 87.93 209.55C87.42 209.62 87.09 209.69 87.09 209.69C87.09 209.69 86.1 209.77 86.1 211.68V271.3L88.62 272.06H93.28V272.07Z" fill="#999999" stroke="black" stroke-width="0.5" stroke-miterlimit="10"/>
<path d="M87.9299 209.56C87.9299 209.56 88.8499 209.56 88.8499 211.77L88.6199 272.08" stroke="black" stroke-width="0.5" stroke-miterlimit="10"/>
<path d="M86.0999 248.3C86.0999 248.3 84.3799 247.73 82.4799 247.07C80.3599 246.32 78.1499 245.64 77.7999 245.29L77.9899 269.02L82.4999 268.71L82.4799 247.07L86.0999 248.3Z" fill="#B3B3B3"/>
<path d="M82.4799 247.07C84.3799 247.73 86.0999 248.3 86.0999 248.3L82.4799 247.07ZM82.4799 247.07C80.3599 246.32 78.1499 245.64 77.7999 245.29L77.9899 269.02L82.4999 268.71L82.4799 247.07Z" stroke="black" stroke-width="0.5" stroke-linecap="round" stroke-linejoin="round"/>
<path d="M67.26 233.63H71.33L74.79 235.58V237.75L71.5 236.67L67.26 234.66V233.63Z" fill="#B3B3B3" stroke="black" stroke-width="0.5" stroke-miterlimit="10"/>
<path d="M66.13 203.74C66.13 203.74 69.63 203.34 70.58 203.95C71.02 204.23 71.5 204.92 71.5 205.62C71.5 212.63 71.33 233.65 71.33 233.65L67.26 233.62" fill="#B3B3B3"/>
<path d="M66.13 203.74C66.13 203.74 69.63 203.34 70.58 203.95C71.02 204.23 71.5 204.92 71.5 205.62C71.5 212.63 71.33 233.65 71.33 233.65L67.26 233.62" stroke="black" stroke-width="0.5" stroke-miterlimit="10"/>
<path d="M60.8199 230.19L64.2399 232.59" stroke="black" stroke-width="0.5" stroke-miterlimit="10"/>
<path d="M54.16 228.09L65.76 233.89L82.28 238.17L87.49 239.74L86.83 248.22L84.43 247.56L77.43 245.29L62.15 241.24L59.33 240.47L53.51 237.71L54.16 228.09Z" fill="#808080"/>
<path d="M60.4399 240.83V262.56H55.5099C55.4899 254.45 55.47 246.33 55.45 238.22" fill="#666666"/>
<path d="M60.4399 240.83V262.56H55.5099C55.4899 254.45 55.47 246.33 55.45 238.22" stroke="black" stroke-width="0.5" stroke-miterlimit="10"/>
<path d="M55.68 230.56L55.45 228.09" stroke="black" stroke-width="0.5" stroke-linejoin="round"/>
<path d="M71.22 243.87L71.27 265.38L66.88 265.53V241.87C68.3 242.83 69.9 243.46 71.22 243.86C72.85 244.35 74.06 244.5 74.06 244.5L74.48 267.54L77.61 268.69L77.42 245.27" fill="#808080"/>
<path d="M71.22 243.87L71.27 265.38L66.88 265.53V241.87C68.3 242.83 69.9 243.46 71.22 243.86C72.85 244.35 74.06 244.5 74.06 244.5L74.48 267.54L77.61 268.69L77.42 245.27" stroke="black" stroke-width="0.5" stroke-linecap="round" stroke-linejoin="round"/>
<path d="M92.91 271.76V211.22C92.91 208.6 89.79 209.24 87.56 209.24C87.05 209.31 86.72 209.38 86.72 209.38C86.72 209.38 85.73 209.46 85.73 211.37V270.99L88.25 271.75H92.91V271.76Z" fill="#999999" stroke="black" stroke-width="0.5" stroke-miterlimit="10"/>
<path d="M88.2499 271.76L88.4799 211.45C88.4799 209.24 87.5599 209.24 87.5599 209.24" stroke="black" stroke-width="0.5" stroke-miterlimit="10"/>
<path d="M85.72 238.29L82.28 236.83L77.62 237.06L85.72 240.42V238.29Z" fill="#B3B3B3" stroke="black" stroke-width="0.5" stroke-linecap="round" stroke-linejoin="round"/>
<path d="M85.7199 247.99C85.7199 247.99 83.9999 247.42 82.0999 246.76C79.9799 246.01 77.7699 245.33 77.4199 244.98L77.6099 268.71L82.1199 268.4L82.0999 246.76L85.7199 247.99Z" fill="#B3B3B3"/>
<path d="M82.0999 246.76C83.9999 247.42 85.7199 247.99 85.7199 247.99L82.0999 246.76ZM82.0999 246.76C79.9799 246.01 77.7699 245.33 77.4199 244.98L77.6099 268.71L82.1199 268.4L82.0999 246.76Z" stroke="black" stroke-width="0.5" stroke-linecap="round" stroke-linejoin="round"/>
<path d="M66.88 233.32H70.95L74.41 235.27V237.45L71.13 236.36L66.88 234.35V233.32Z" fill="#B3B3B3" stroke="black" stroke-width="0.5" stroke-miterlimit="10"/>
<path d="M65.76 203.43C65.76 203.43 69.26 203.03 70.21 203.64C70.65 203.92 71.13 204.61 71.13 205.31C71.13 212.32 70.96 233.34 70.96 233.34L66.89 233.31" fill="#B3B3B3"/>
<path d="M65.76 203.43C65.76 203.43 69.26 203.03 70.21 203.64C70.65 203.92 71.13 204.61 71.13 205.31C71.13 212.32 70.96 233.34 70.96 233.34L66.89 233.31" stroke="black" stroke-width="0.5" stroke-miterlimit="10"/>
<path d="M60.4399 229.88L63.8599 232.29" stroke="black" stroke-width="0.5" stroke-miterlimit="10"/>
<path d="M52.95 206.38L52.97 203.31C53.01 200.84 55.45 200.76 55.45 203.29C55.45 207.11 55.51 262.57 55.51 262.57L53.01 261.76C53.01 261.76 52.7 204.36 53.01 202.83C53.32 201.3 54.16 201.22 54.16 201.22C59.97 200.61 60.43 201.53 60.43 203.13C60.43 204.62 60.45 229.88 60.45 229.88H55.46C55.46 229.88 60.2 234.01 63.87 234.35V205.8C63.87 202.9 66.89 202.21 66.89 205.8V241.88C66.89 241.88 71.78 244.67 74.07 244.52C74.07 244.52 74.41 213.83 74.41 209.08V208.56C74.41 205.43 77.62 205.93 77.62 209.08V237.07V208.9L77.41 207.8L76.88 206.93L76.29 206.53L75.91 206.32C75.7 206.32 77.92 206.32 80.94 206.32C82.62 206.32 82.22 214.44 82.22 214.44L82.3 236.83L78.86 237L77.64 237.06L77.45 245.28L77.64 268.7L74.51 267.55L74.09 244.51C69.66 243.8 67.6 242.67 66.91 241.57L66.95 249.67L66.91 265.53L64.04 264.27L63.89 232.28L60.47 229.87H55.48L55.71 230.55" fill="#999999"/>
<path d="M52.95 206.38L52.97 203.31C53.01 200.84 55.45 200.76 55.45 203.29C55.45 207.11 55.51 262.57 55.51 262.57L53.01 261.76C53.01 261.76 52.7 204.36 53.01 202.83C53.32 201.3 54.16 201.22 54.16 201.22C59.97 200.61 60.43 201.53 60.43 203.13C60.43 204.62 60.45 229.88 60.45 229.88H55.46C55.46 229.88 60.2 234.01 63.87 234.35V205.8C63.87 202.9 66.89 202.21 66.89 205.8V241.88C66.89 241.88 71.78 244.67 74.07 244.52C74.07 244.52 74.41 213.83 74.41 209.08V208.56C74.41 205.43 77.62 205.93 77.62 209.08V237.07V208.9L77.41 207.8L76.88 206.93L76.29 206.53L75.91 206.32C75.7 206.32 77.92 206.32 80.94 206.32C82.62 206.32 82.22 214.44 82.22 214.44L82.3 236.83L78.86 237L77.64 237.06L77.45 245.28L77.64 268.7L74.51 267.55L74.09 244.51C69.66 243.8 67.6 242.67 66.91 241.57L66.95 249.67L66.91 265.53L64.04 264.27L63.89 232.28L60.47 229.87H55.48L55.71 230.55" stroke="black" stroke-width="0.5" stroke-linejoin="round"/>
<path d="M66.8799 265.54L63.9399 264.62L63.63 241.5C63.63 241.5 57.82 240.81 55.45 238.18" stroke="black" stroke-width="0.5" stroke-linecap="round" stroke-linejoin="round"/>
<path d="M431.69 250L395.75 243.59L396.04 235.55L432.72 242.46L431.69 250Z" fill="#333333" stroke="black" stroke-width="0.5" stroke-linecap="round" stroke-linejoin="round"/>
<path d="M396.87 265.33H395.39C394.54 265.33 393.31 264.64 393.3 263.81L392.29 206.57C392.29 205.73 393.13 205.95 394.84 205.93H396.86C397.35 205.93 397.81 206.16 398.1 206.54C398.3 206.8 398.41 207.12 398.41 207.45V263.81C398.41 264.65 397.72 265.33 396.86 265.33H396.87Z" fill="#808080" stroke="black" stroke-width="0.5" stroke-miterlimit="10"/>
<path d="M391.56 208.4C391.56 205.2 394.38 205.2 394.38 208.4V265.08L391.56 264.11V208.4Z" fill="#666666" stroke="black" stroke-width="0.5" stroke-linecap="round" stroke-linejoin="round"/>
<path d="M407.23 267.83H405.75C404.9 267.83 403.67 267.14 403.66 266.29L402.65 208.4C402.65 207.55 403.49 207.77 405.2 207.75H407.22C407.71 207.75 408.17 207.98 408.46 208.37C408.66 208.64 408.77 208.96 408.77 209.29V266.29C408.77 267.14 408.08 267.83 407.22 267.83H407.23Z" fill="#808080" stroke="black" stroke-width="0.5" stroke-miterlimit="10"/>
<path d="M401.92 210.25C401.92 207.01 404.74 207.01 404.74 210.25V267.58L401.92 266.6V210.26V210.25Z" fill="#666666" stroke="black" stroke-width="0.5" stroke-linecap="round" stroke-linejoin="round"/>
<path d="M417.69 271.44H416.21C415.36 271.44 414.13 270.74 414.12 269.88L413.11 211.22C413.11 210.35 413.95 210.58 415.66 210.57H417.68C418.17 210.57 418.63 210.8 418.92 211.2C419.12 211.47 419.23 211.8 419.23 212.13V269.89C419.23 270.75 418.54 271.45 417.68 271.45L417.69 271.44Z" fill="#808080" stroke="black" stroke-width="0.5" stroke-miterlimit="10"/>
<path d="M412.39 213.1C412.39 209.82 415.21 209.82 415.21 213.1V271.18L412.39 270.18V213.09V213.1Z" fill="#666666" stroke="black" stroke-width="0.5" stroke-linecap="round" stroke-linejoin="round"/>
<path d="M434.74 275.08H433.26C432.41 275.08 431.18 274.38 431.17 273.52L430.16 214.86C430.16 213.99 431 214.22 432.71 214.21H434.73C435.22 214.21 435.68 214.44 435.97 214.84C436.17 215.11 436.28 215.44 436.28 215.77V273.53C436.28 274.39 435.59 275.09 434.73 275.09L434.74 275.08Z" fill="#808080" stroke="black" stroke-width="0.5" stroke-miterlimit="10"/>
<path d="M429.44 216.74C429.44 213.46 432.26 213.46 432.26 216.74V274.82L429.44 273.82V216.73V216.74Z" fill="#666666" stroke="black" stroke-width="0.5" stroke-linecap="round" stroke-linejoin="round"/>
<path d="M361.91 251.01L386.6 250.95V242.37L361.84 242.53" fill="#B3B3B3"/>
<path d="M361.91 251.01L386.6 250.95V242.37L361.84 242.53" stroke="black" stroke-width="0.5" stroke-linecap="round" stroke-linejoin="round"/>
<path d="M396.77 242.3V250.92L422.37 250.85L422.53 242.14L396.77 242.3Z" fill="#B3B3B3" stroke="black" stroke-width="0.5" stroke-linecap="round" stroke-linejoin="round"/>
<path d="M422.52 274.68C422.52 274.68 422.26 220.29 422.26 216.28C422.26 212.27 432.01 211.33 432.01 216.52C432.01 221.71 432.7 274.48 432.7 274.48L422.52 274.69V274.68Z" fill="#B3B3B3" stroke="black" stroke-width="0.5" stroke-linecap="round" stroke-linejoin="round"/>
<path d="M352.01 275.8C352.01 275.8 351.75 221.41 351.75 217.4C351.75 213.39 361.5 212.45 361.5 217.64C361.5 222.83 362.19 275.6 362.19 275.6L352.01 275.81V275.8Z" fill="#B3B3B3" stroke="black" stroke-width="0.5" stroke-linecap="round" stroke-linejoin="round"/>
<path d="M386.86 275.27C386.86 275.27 386.6 220.88 386.6 216.87C386.6 212.86 396.35 211.92 396.35 217.11C396.35 222.3 397.04 275.07 397.04 275.07L386.86 275.28V275.27Z" fill="#B3B3B3" stroke="black" stroke-width="0.5" stroke-linecap="round" stroke-linejoin="round"/>
</g>
<defs>
<clipPath id="clip0_99_4">
<rect width="472.61" height="300.03" fill="white"/>
</clipPath>
</defs>
</svg>
